<mxfile host="app.diagrams.net" modified="2023-11-20T08:03:31.654Z" agent="Mozilla/5.0 (Windows NT 10.0; Win64; x64) AppleWebKit/537.36 (KHTML, like Gecko) Chrome/116.0.0.0 Safari/537.36 OPR/102.0.0.0" etag="GB-EBDI3405UFsCVSpKY" version="22.1.3" type="github">
  <diagram name="Seite-1" id="s22Gi5cnO17g1oBnEDJB">
    <mxGraphModel dx="2033" dy="1118" grid="1" gridSize="10" guides="1" tooltips="1" connect="1" arrows="1" fold="1" page="1" pageScale="1" pageWidth="827" pageHeight="1169" math="0" shadow="0">
      <root>
        <mxCell id="0" />
        <mxCell id="1" parent="0" />
        <mxCell id="pselPhSGW1nV5eY1_n_y-3" style="edgeStyle=orthogonalEdgeStyle;rounded=0;orthogonalLoop=1;jettySize=auto;html=1;exitX=0.5;exitY=1;exitDx=0;exitDy=0;entryX=0.5;entryY=0;entryDx=0;entryDy=0;" edge="1" parent="1" source="pselPhSGW1nV5eY1_n_y-1" target="pselPhSGW1nV5eY1_n_y-2">
          <mxGeometry relative="1" as="geometry" />
        </mxCell>
        <mxCell id="pselPhSGW1nV5eY1_n_y-1" value="Show Logo&lt;br&gt;Show welcome message" style="ellipse;whiteSpace=wrap;html=1;" vertex="1" parent="1">
          <mxGeometry x="354" y="40" width="120" height="80" as="geometry" />
        </mxCell>
        <mxCell id="pselPhSGW1nV5eY1_n_y-5" style="edgeStyle=orthogonalEdgeStyle;rounded=0;orthogonalLoop=1;jettySize=auto;html=1;exitX=0.5;exitY=1;exitDx=0;exitDy=0;" edge="1" parent="1" source="pselPhSGW1nV5eY1_n_y-2">
          <mxGeometry relative="1" as="geometry">
            <mxPoint x="414" y="310" as="targetPoint" />
          </mxGeometry>
        </mxCell>
        <mxCell id="pselPhSGW1nV5eY1_n_y-2" value="Ask for name&lt;br&gt;Ask for Bid&lt;br&gt;Save them" style="rounded=1;whiteSpace=wrap;html=1;" vertex="1" parent="1">
          <mxGeometry x="354" y="180" width="120" height="60" as="geometry" />
        </mxCell>
        <mxCell id="pselPhSGW1nV5eY1_n_y-9" style="edgeStyle=orthogonalEdgeStyle;rounded=0;orthogonalLoop=1;jettySize=auto;html=1;exitX=0;exitY=0.5;exitDx=0;exitDy=0;entryX=1;entryY=0.5;entryDx=0;entryDy=0;" edge="1" parent="1" source="pselPhSGW1nV5eY1_n_y-6" target="pselPhSGW1nV5eY1_n_y-7">
          <mxGeometry relative="1" as="geometry" />
        </mxCell>
        <mxCell id="pselPhSGW1nV5eY1_n_y-10" style="edgeStyle=orthogonalEdgeStyle;rounded=0;orthogonalLoop=1;jettySize=auto;html=1;exitX=1;exitY=0.5;exitDx=0;exitDy=0;entryX=0;entryY=0.5;entryDx=0;entryDy=0;" edge="1" parent="1" source="pselPhSGW1nV5eY1_n_y-6" target="pselPhSGW1nV5eY1_n_y-8">
          <mxGeometry relative="1" as="geometry" />
        </mxCell>
        <mxCell id="pselPhSGW1nV5eY1_n_y-6" value="Other bidders?" style="rhombus;whiteSpace=wrap;html=1;" vertex="1" parent="1">
          <mxGeometry x="351" y="310" width="126" height="80" as="geometry" />
        </mxCell>
        <mxCell id="pselPhSGW1nV5eY1_n_y-13" style="edgeStyle=orthogonalEdgeStyle;rounded=0;orthogonalLoop=1;jettySize=auto;html=1;exitX=0.5;exitY=0;exitDx=0;exitDy=0;entryX=0;entryY=0.5;entryDx=0;entryDy=0;" edge="1" parent="1" source="pselPhSGW1nV5eY1_n_y-7" target="pselPhSGW1nV5eY1_n_y-2">
          <mxGeometry relative="1" as="geometry" />
        </mxCell>
        <mxCell id="pselPhSGW1nV5eY1_n_y-7" value="clear screen" style="rounded=1;whiteSpace=wrap;html=1;" vertex="1" parent="1">
          <mxGeometry x="90" y="320" width="120" height="60" as="geometry" />
        </mxCell>
        <mxCell id="pselPhSGW1nV5eY1_n_y-8" value="declare the winner&lt;br&gt;(highest bid)" style="rounded=1;whiteSpace=wrap;html=1;" vertex="1" parent="1">
          <mxGeometry x="630" y="320" width="120" height="60" as="geometry" />
        </mxCell>
        <mxCell id="pselPhSGW1nV5eY1_n_y-11" value="yes" style="text;html=1;align=center;verticalAlign=middle;resizable=0;points=[];autosize=1;strokeColor=none;fillColor=none;" vertex="1" parent="1">
          <mxGeometry x="250" y="328" width="40" height="30" as="geometry" />
        </mxCell>
        <mxCell id="pselPhSGW1nV5eY1_n_y-12" value="no" style="text;html=1;align=center;verticalAlign=middle;resizable=0;points=[];autosize=1;strokeColor=none;fillColor=none;" vertex="1" parent="1">
          <mxGeometry x="530" y="328" width="40" height="30" as="geometry" />
        </mxCell>
      </root>
    </mxGraphModel>
  </diagram>
</mxfile>
